# xmcd
#
# Track frame offsets:
#	150
#	28705
#	52462
#	64350
#	95585
#	130367
#	168642
#	196255
#	222185
#	256482
#	273330
#	295925
#	311575
#
# Disc length: 4639 seconds
#
# Revision: 2
# Processed by: cddbd v1.5.2PL0 Copyright (c) Steve Scherf et al.
# Submitted via: EZCDAudioConverter 2.1.7.1
#
DISCID=d4121d0d
DTITLE=V/A - Legend Of A Mind 2/3
DYEAR=2002
DGENRE=
TTITLE0=Human Beast - Maybe Someday
TTITLE1=Black Cat Bones - Chauffer
TTITLE2=Pacific Drift - Tomorrow Morning Brings
TTITLE3=Zakkarias - The Unknown Years
TTITLE4=Clark-Hutchinson - Free To Be Stoned
TTITLE5=Room - Cemetery Junction (Part 1 and 2)
TTITLE6=Keef Hartley Band - Roundabout
TTITLE7=Moody Blues - Question
TTITLE8=Ten Years After - Love Like A Man
TTITLE9=East Of Eden - Jig-A-Jig
TTITLE10=Caravan - Golf Girl
TTITLE11=Mellow Candle - Boulders On My Grave
TTITLE12=Keef Hartley Band - Theme Song
EXTD=
EXTT0=
EXTT1=
EXTT2=
EXTT3=
EXTT4=
EXTT5=
EXTT6=
EXTT7=
EXTT8=
EXTT9=
EXTT10=
EXTT11=
EXTT12=
PLAYORDER=
